<?xml version="1.0" encoding="UTF-8"?>
<!DOCTYPE svg PUBLIC "-//W3C//DTD SVG 1.1//EN" "http://www.w3.org/Graphics/SVG/1.1/DTD/svg11.dtd">
<!-- Creator: CorelDRAW -->
<svg xmlns="http://www.w3.org/2000/svg" xml:space="preserve" width="210mm" height="297mm" version="1.1" style="shape-rendering:geometricPrecision; text-rendering:geometricPrecision; image-rendering:optimizeQuality; fill-rule:evenodd; clip-rule:evenodd"
viewBox="0 0 21000 29700"
 xmlns:xlink="http://www.w3.org/1999/xlink"
 xmlns:xodm="http://www.corel.com/coreldraw/odm/2003">
 <defs>
  <style type="text/css">
   <![CDATA[
    .fil5 {fill:none}
    .fil4 {fill:none;fill-rule:nonzero}
    .fil0 {fill:#000066}
    .fil3 {fill:#F0F0F0}
    .fil2 {fill:white;fill-rule:nonzero}
    .fil1 {fill:white;fill-opacity:0.129412}
   ]]>
  </style>
   <clipPath id="id0">
    <path d="M695.99 4796.56l6413.78 0c550,0 999.99,449.99 999.99,999.99l0 5646.48c0,550 -449.99,999.99 -999.99,999.99l-6413.78 0c-550,0 -999.99,-449.99 -999.99,-999.99l0 -5646.48c0,-550 449.99,-999.99 999.99,-999.99z"/>
   </clipPath>
    <clipPath id="id1" style="clip-rule:nonzero">
     <path d="M8036.58 5422.22l-2799.01 5008.91c-145.89,261.08 -371.87,389.77 -674.19,389.77l-387.66 0 0 -2743.12 -1512.72 2365.99c-163.29,251.77 -403.47,377.13 -721.6,377.13l-439.28 0 322.35 -3564.8c-478.26,0 -1139,0 -1617.26,0 -43.37,-345.44 25.03,-642.98 474.04,-777.42l1547.73 0c166.45,0 310.37,36.93 428.75,113.77 160.76,104.33 241.23,268.62 241.23,490.89 0,32.66 -2.1,67.42 -6.32,102.18l-221.22 2091.06 1470.59 -2335.45c105.34,-166.44 199.09,-279.16 281.26,-339.2 115.88,-82.17 272.84,-123.25 472.99,-123.25l303.39 0 0 2737.85c481.94,-892.14 1861.07,-3338.23 2383.28,-4300.13 203.85,110.38 365.62,289.54 453.65,505.82z"/>
    </clipPath>
    <clipPath id="id2" style="clip-rule:nonzero">
     <path d="M695.99 4796.56l6413.78 0c550,0 999.99,449.99 999.99,999.99l0 5646.48c0,550 -449.99,999.99 -999.99,999.99l-6413.78 0c-550,0 -999.99,-449.99 -999.99,-999.99l0 -5646.48c0,-550 449.99,-999.99 999.99,-999.99z"/>
    </clipPath>
 </defs>
 <g id="Layer_x0020_1">
  <metadata id="CorelCorpID_0Corel-Layer"/>
  <path class="fil0" d="M695.99 4796.56l6413.78 0c550,0 999.99,449.99 999.99,999.99l0 5646.48c0,550 -449.99,999.99 -999.99,999.99l-6413.78 0c-550,0 -999.99,-449.99 -999.99,-999.99l0 -5646.48c0,-550 449.99,-999.99 999.99,-999.99z"/>
  <g style="clip-path:url(#id0)">
   <g id="_2215912143456">
    <path id="_1" class="fil1" d="M3902.88 8043.9c2501.36,0 4529.12,2027.76 4529.12,4529.12 0,2501.36 -2027.76,4529.12 -4529.12,4529.12 -2501.36,0 -4529.12,-2027.76 -4529.12,-4529.12 0,-2501.36 2027.76,-4529.12 4529.12,-4529.12z"/>
    <path class="fil2" d="M8355.08 4852.26l-3117.51 5578.87c-145.89,261.08 -371.87,389.77 -674.19,389.77l-387.66 0 0 -2743.12 -1512.72 2365.99c-163.29,251.77 -403.47,377.13 -721.6,377.13l-439.28 0 322.35 -3564.8c-478.26,0 -1139,0 -1617.26,0 -43.37,-345.44 25.03,-642.98 474.04,-777.42l1547.73 0c166.45,0 310.37,36.93 428.75,113.77 160.76,104.33 241.23,268.62 241.23,490.89 0,32.66 -2.1,67.42 -6.32,102.18l-221.22 2091.06 1470.59 -2335.45c105.34,-166.44 199.09,-279.16 281.26,-339.2 115.88,-82.17 272.84,-123.25 472.99,-123.25l303.39 0 0 2737.85c493,-912.62 1925.03,-3451.65 2418.03,-4364.27 245.79,-158.84 491.61,-169.08 737.4,0z"/>
   </g>
   <g style="clip-path:url(#id1)">
    <g>
     <circle class="fil3" cx="3902.88" cy="12553.02" r="4515.96"/>
    </g>
   </g>
   <g style="clip-path:url(#id2)">
    <path class="fil4" d="M8355.08 4852.26l-3117.51 5578.87c-145.89,261.08 -371.87,389.77 -674.19,389.77l-387.66 0 0 -2743.12 -1512.72 2365.99c-163.29,251.77 -403.47,377.13 -721.6,377.13l-439.28 0 322.35 -3564.8c-478.26,0 -1139,0 -1617.26,0 -43.37,-345.44 25.03,-642.98 474.04,-777.42l1547.73 0c166.45,0 310.37,36.93 428.75,113.77 160.76,104.33 241.23,268.62 241.23,490.89 0,32.66 -2.1,67.42 -6.32,102.18l-221.22 2091.06 1470.59 -2335.45c105.34,-166.44 199.09,-279.16 281.26,-339.2 115.88,-82.17 272.84,-123.25 472.99,-123.25l303.39 0 0 2737.85c493,-912.62 1925.03,-3451.65 2418.03,-4364.27 245.79,-158.84 491.61,-169.08 737.4,0z"/>
   </g>
  </g>
  <path class="fil5" d="M695.99 4796.56l6413.78 0c550,0 999.99,449.99 999.99,999.99l0 5646.48c0,550 -449.99,999.99 -999.99,999.99l-6413.78 0c-550,0 -999.99,-449.99 -999.99,-999.99l0 -5646.48c0,-550 449.99,-999.99 999.99,-999.99z"/>
 </g>
</svg>
